<?xml version="1.0" standalone="no"?>
<!DOCTYPE svg PUBLIC "-//W3C//DTD SVG 20010904//EN"
 "http://www.w3.org/TR/2001/REC-SVG-20010904/DTD/svg10.dtd">
<svg version="1.0" xmlns="http://www.w3.org/2000/svg"
 width="192.000000pt" height="192.000000pt" viewBox="0 0 192.000000 192.000000"
 preserveAspectRatio="xMidYMid meet">
<metadata>
Created by potrace 1.11, written by Peter Selinger 2001-2013
</metadata>
<g transform="translate(0.000000,192.000000) scale(0.100000,-0.100000)"
fill="#000000" stroke="none">
<path d="M551 1833 c-12 -8 -21 -40 -31 -110 -7 -54 -14 -105 -16 -113 -1 -8
-3 -28 -3 -43 -1 -20 -15 -43 -47 -75 -149 -148 -224 -329 -224 -534 0 -179
74 -356 205 -496 27 -30 53 -59 56 -65 4 -7 12 -52 18 -102 17 -130 22 -156
31 -181 l9 -23 394 0 c296 0 398 3 410 12 15 11 20 31 42 197 2 14 4 25 5 25
1 0 3 17 5 38 2 32 14 50 59 95 31 32 66 71 77 87 40 59 99 190 111 247 8 40
17 58 28 59 30 1 53 8 62 17 6 6 11 50 12 98 1 104 -10 122 -71 115 -11 -1
-20 16 -28 57 -21 111 -115 275 -203 354 -41 37 -44 46 -58 168 -2 19 -6 46
-9 60 -2 13 -7 42 -11 65 -3 22 -10 44 -15 50 -14 14 -787 13 -808 -2z m557
-237 c133 -35 245 -104 337 -208 47 -54 121 -191 129 -240 3 -15 8 -32 11 -38
4 -6 8 -57 10 -114 7 -196 -52 -350 -185 -485 -64 -64 -160 -128 -220 -146 -3
-1 -30 -9 -60 -19 -75 -24 -227 -29 -315 -11 -212 44 -405 217 -475 423 -88
262 -2 548 216 722 35 28 124 80 137 80 7 0 17 4 23 9 10 9 121 39 164 44 54
6 172 -3 228 -17z"/>
<path d="M813 1519 c-77 -19 -113 -35 -183 -82 -113 -75 -212 -222 -235 -346
-3 -14 -7 -37 -10 -50 -3 -17 2 -31 15 -43 25 -24 25 -44 1 -60 -21 -13 -21
-27 1 -118 29 -122 148 -279 260 -344 99 -58 234 -90 258 -62 16 21 59 20 67
0 4 -12 15 -15 47 -10 238 32 449 238 480 470 6 42 4 51 -14 68 -20 18 -20 21
-5 41 27 38 28 47 11 115 -50 205 -202 362 -406 421 -70 20 -106 20 -118 0
-15 -24 -35 -24 -58 -2 -23 23 -29 23 -111 2z m421 -285 c11 -27 8 -31 -99
-138 -73 -73 -105 -113 -105 -129 0 -14 20 -42 55 -77 43 -42 55 -61 53 -80
-2 -18 -10 -26 -28 -28 -19 -2 -38 10 -80 53 -32 33 -63 55 -76 55 -29 0 -72
35 -76 63 -8 47 28 87 83 92 9 1 61 47 115 102 74 76 106 102 125 102 16 1 29
-6 33 -15z"/>
</g>
</svg>
